<svg xmlns="http://www.w3.org/2000/svg" version="1.1" xmlns:xlink="http://www.w3.org/1999/xlink" xmlns:svgjs="http://svgjs.com/svgjs" width="1000" height="1000"><style>
    #light-icon {
      display: inline;
    }
    #dark-icon {
      display: none;
    }

    @media (prefers-color-scheme: dark) {
      #light-icon {
        display: none;
      }
      #dark-icon {
        display: inline;
      }
    }
  </style><g id="light-icon"><svg xmlns="http://www.w3.org/2000/svg" version="1.1" xmlns:xlink="http://www.w3.org/1999/xlink" xmlns:svgjs="http://svgjs.com/svgjs" width="1000" height="1000"><rect width="1000" height="1000" rx="500" ry="500" fill="#ffffff"></rect><g transform="matrix(6.410256410256411,0,0,6.410256410256411,0,0)"><svg xmlns="http://www.w3.org/2000/svg" version="1.1" xmlns:xlink="http://www.w3.org/1999/xlink" xmlns:svgjs="http://svgjs.com/svgjs" width="156" height="156"><svg width="156" height="156" viewBox="0 0 156 156" fill="none" xmlns="http://www.w3.org/2000/svg">
<path fill-rule="evenodd" clip-rule="evenodd" d="M78 156C121.078 156 156 121.078 156 78C156 34.9218 121.078 0 78 0C34.9218 0 0 34.9218 0 78C0 121.078 34.9218 156 78 156ZM50.7943 92.1821C48.5034 92.1821 46.3899 91.8139 44.4536 91.0776C42.5173 90.3412 40.8264 89.3048 39.381 87.9685C37.9629 86.6048 36.8583 85.023 36.0675 83.223C35.2766 81.423 34.8811 79.4457 34.8811 77.2912C34.8811 75.1367 35.2766 73.1594 36.0675 71.3594C36.8583 69.5594 37.9629 67.9912 39.381 66.6548C40.8264 65.2912 42.5173 64.2412 44.4536 63.5048C46.3899 62.7685 48.5034 62.4003 50.7943 62.4003C53.1124 62.4003 55.226 62.7685 57.135 63.5048C59.0713 64.2412 60.7485 65.2912 62.1667 66.6548C63.5848 67.9912 64.6893 69.5594 65.4802 71.3594C66.2984 73.1594 66.7074 75.1367 66.7074 77.2912C66.7074 79.4457 66.2984 81.4367 65.4802 83.2639C64.6893 85.0639 63.5848 86.6321 62.1667 87.9685C60.7485 89.3048 59.0713 90.3412 57.135 91.0776C55.226 91.8139 53.1124 92.1821 50.7943 92.1821ZM50.7943 85.473C51.8852 85.473 52.8942 85.2821 53.8215 84.9003C54.776 84.5185 55.5941 83.973 56.2759 83.2639C56.985 82.5276 57.5304 81.6548 57.9122 80.6458C58.3213 79.6367 58.5259 78.5185 58.5259 77.2912C58.5259 76.0367 58.3213 74.9185 57.9122 73.9367C57.5304 72.9276 56.985 72.0685 56.2759 71.3594C55.5941 70.623 54.776 70.0639 53.8215 69.6821C52.8942 69.3003 51.8852 69.1094 50.7943 69.1094C49.7034 69.1094 48.6807 69.3003 47.7262 69.6821C46.799 70.0639 45.9808 70.623 45.2717 71.3594C44.5899 72.0685 44.0445 72.9276 43.6354 73.9367C43.2536 74.9185 43.0627 76.0367 43.0627 77.2912C43.0627 78.5185 43.2536 79.6367 43.6354 80.6458C44.0445 81.6548 44.5899 82.5276 45.2717 83.2639C45.9808 83.973 46.799 84.5185 47.7262 84.9003C48.6807 85.2821 49.7034 85.473 50.7943 85.473ZM75.8298 91.6095L63.5984 62.9731H72.3527L80.1146 81.6392L88.0613 62.9731H96.0792L83.8069 91.6095H75.8298ZM129.596 91.6095V84.4358L132.604 81.2135L140.805 91.6095H150.214L137.909 75.639L149.6 62.9731H140.682L129.596 74.8698V62.9731H121.578V91.6095H129.596ZM5.67286 91.6095V62.9731H12.3408L24.9814 78.2339V62.9731H32.9175V91.6095H26.2495L13.609 76.3487V91.6095H5.67286ZM100.102 62.9731L87.4613 91.6095H95.7247L104.029 70.9168L108.169 81.2321H103.511L101.22 87.2049H110.566L112.333 91.6095H120.76L109.922 67.1346L115.06 62.9731L100.102 62.9731ZM44.7044 121.945V118.684L47.0161 116.34L51.8324 121.945H53.9384L48.2188 115.02L53.5964 109.345H51.5444L44.7044 116.392V109.345H42.9044V121.945H44.7044ZM59.4419 121.945V109.345H61.2419V120.379H68.0639V121.945H59.4419ZM73.7294 121.945V109.345H75.5294V121.945H73.7294ZM73.2794 108.319L75.7274 105.979H77.9234L74.8994 108.319H73.2794ZM82.9016 121.945V109.345H84.3776L89.6311 118.196L94.8176 109.345H96.2936L96.3116 121.945H94.5836L94.5669 112.757L90.0116 120.415H89.1836L84.6296 112.814V121.945H82.9016ZM101.785 121.945L107.491 109.345H109.273L114.997 121.945H113.107L111.723 118.795H105.023L103.639 121.945H101.785ZM108.373 111.172L111.09 117.355H105.656L108.373 111.172Z" fill="url(#paint0_linear_212_54)"></path>
<defs>
<linearGradient id="paint0_linear_212_54" x1="-233.659" y1="379.771" x2="-298.362" y2="296.88" gradientUnits="userSpaceOnUse">
<stop stop-color="#21D2FE"></stop>
<stop offset="0.932104" stop-color="#FF4F34"></stop>
</linearGradient>
</defs>
</svg></svg></g></svg></g><g id="dark-icon"><svg xmlns="http://www.w3.org/2000/svg" version="1.1" xmlns:xlink="http://www.w3.org/1999/xlink" xmlns:svgjs="http://svgjs.com/svgjs" width="1000" height="1000"><g transform="matrix(6.410256410256411,0,0,6.410256410256411,0,0)" style="filter: contrast(0.8333333333333334) brightness(1.7)"><svg xmlns="http://www.w3.org/2000/svg" version="1.1" xmlns:xlink="http://www.w3.org/1999/xlink" xmlns:svgjs="http://svgjs.com/svgjs" width="156" height="156"><svg width="156" height="156" viewBox="0 0 156 156" fill="none" xmlns="http://www.w3.org/2000/svg">
<path fill-rule="evenodd" clip-rule="evenodd" d="M78 156C121.078 156 156 121.078 156 78C156 34.9218 121.078 0 78 0C34.9218 0 0 34.9218 0 78C0 121.078 34.9218 156 78 156ZM50.7943 92.1821C48.5034 92.1821 46.3899 91.8139 44.4536 91.0776C42.5173 90.3412 40.8264 89.3048 39.381 87.9685C37.9629 86.6048 36.8583 85.023 36.0675 83.223C35.2766 81.423 34.8811 79.4457 34.8811 77.2912C34.8811 75.1367 35.2766 73.1594 36.0675 71.3594C36.8583 69.5594 37.9629 67.9912 39.381 66.6548C40.8264 65.2912 42.5173 64.2412 44.4536 63.5048C46.3899 62.7685 48.5034 62.4003 50.7943 62.4003C53.1124 62.4003 55.226 62.7685 57.135 63.5048C59.0713 64.2412 60.7485 65.2912 62.1667 66.6548C63.5848 67.9912 64.6893 69.5594 65.4802 71.3594C66.2984 73.1594 66.7074 75.1367 66.7074 77.2912C66.7074 79.4457 66.2984 81.4367 65.4802 83.2639C64.6893 85.0639 63.5848 86.6321 62.1667 87.9685C60.7485 89.3048 59.0713 90.3412 57.135 91.0776C55.226 91.8139 53.1124 92.1821 50.7943 92.1821ZM50.7943 85.473C51.8852 85.473 52.8942 85.2821 53.8215 84.9003C54.776 84.5185 55.5941 83.973 56.2759 83.2639C56.985 82.5276 57.5304 81.6548 57.9122 80.6458C58.3213 79.6367 58.5259 78.5185 58.5259 77.2912C58.5259 76.0367 58.3213 74.9185 57.9122 73.9367C57.5304 72.9276 56.985 72.0685 56.2759 71.3594C55.5941 70.623 54.776 70.0639 53.8215 69.6821C52.8942 69.3003 51.8852 69.1094 50.7943 69.1094C49.7034 69.1094 48.6807 69.3003 47.7262 69.6821C46.799 70.0639 45.9808 70.623 45.2717 71.3594C44.5899 72.0685 44.0445 72.9276 43.6354 73.9367C43.2536 74.9185 43.0627 76.0367 43.0627 77.2912C43.0627 78.5185 43.2536 79.6367 43.6354 80.6458C44.0445 81.6548 44.5899 82.5276 45.2717 83.2639C45.9808 83.973 46.799 84.5185 47.7262 84.9003C48.6807 85.2821 49.7034 85.473 50.7943 85.473ZM75.8298 91.6095L63.5984 62.9731H72.3527L80.1146 81.6392L88.0613 62.9731H96.0792L83.8069 91.6095H75.8298ZM129.596 91.6095V84.4358L132.604 81.2135L140.805 91.6095H150.214L137.909 75.639L149.6 62.9731H140.682L129.596 74.8698V62.9731H121.578V91.6095H129.596ZM5.67286 91.6095V62.9731H12.3408L24.9814 78.2339V62.9731H32.9175V91.6095H26.2495L13.609 76.3487V91.6095H5.67286ZM100.102 62.9731L87.4613 91.6095H95.7247L104.029 70.9168L108.169 81.2321H103.511L101.22 87.2049H110.566L112.333 91.6095H120.76L109.922 67.1346L115.06 62.9731L100.102 62.9731ZM44.7044 121.945V118.684L47.0161 116.34L51.8324 121.945H53.9384L48.2188 115.02L53.5964 109.345H51.5444L44.7044 116.392V109.345H42.9044V121.945H44.7044ZM59.4419 121.945V109.345H61.2419V120.379H68.0639V121.945H59.4419ZM73.7294 121.945V109.345H75.5294V121.945H73.7294ZM73.2794 108.319L75.7274 105.979H77.9234L74.8994 108.319H73.2794ZM82.9016 121.945V109.345H84.3776L89.6311 118.196L94.8176 109.345H96.2936L96.3116 121.945H94.5836L94.5669 112.757L90.0116 120.415H89.1836L84.6296 112.814V121.945H82.9016ZM101.785 121.945L107.491 109.345H109.273L114.997 121.945H113.107L111.723 118.795H105.023L103.639 121.945H101.785ZM108.373 111.172L111.09 117.355H105.656L108.373 111.172Z" fill="#21D2FE"></path>
</svg></svg></g></svg></g></svg>