<svg width="486" height="100" viewBox="0 0 486 100" fill="none" xmlns="http://www.w3.org/2000/svg">
<path d="M416.105 73.9898V98.0773H389.182V1.92349H416.105V41.8696L453.329 1.92349H483.273L444.017 44.4522L485.333 98.0773H453.741L426.203 63.1703L416.105 73.9898Z" fill="black"/>
<path d="M194.5 1.92349L235.57 98.0773H262.355L303.562 1.92349H276.64L249.957 64.5996L223.894 1.92349H194.5Z" fill="black"/>
<path d="M151.507 100C143.815 100 136.718 98.7637 130.216 96.2912C123.714 93.8187 118.037 90.3388 113.184 85.8516C108.422 81.2729 104.713 75.9615 102.058 69.9176C99.402 63.8736 98.0742 57.2344 98.0742 50C98.0742 42.7656 99.402 36.1264 102.058 30.0824C104.713 24.0385 108.422 18.7729 113.184 14.2857C118.037 9.70696 123.714 6.18132 130.216 3.70879C136.718 1.23626 143.815 0 151.507 0C159.29 0 166.387 1.23626 172.797 3.70879C179.299 6.18132 184.931 9.70696 189.692 14.2857C194.454 18.7729 198.163 24.0385 200.818 30.0824C203.565 36.1264 204.939 42.7656 204.939 50C204.939 57.2344 203.565 63.9194 200.818 70.0549C198.163 76.0989 194.454 81.3645 189.692 85.8516C184.931 90.3388 179.299 93.8187 172.797 96.2912C166.387 98.7637 159.29 100 151.507 100ZM151.507 77.4725C155.17 77.4725 158.558 76.8315 161.671 75.5494C164.876 74.2674 167.623 72.4359 169.913 70.0549C172.294 67.5824 174.125 64.652 175.407 61.2637C176.781 57.8755 177.467 54.1209 177.467 50C177.467 45.7875 176.781 42.033 175.407 38.7363C174.125 35.348 172.294 32.4634 169.913 30.0824C167.623 27.6099 164.876 25.7326 161.671 24.4506C158.558 23.1685 155.17 22.5275 151.507 22.5275C147.844 22.5275 144.41 23.1685 141.205 24.4506C138.091 25.7326 135.344 27.6099 132.963 30.0824C130.674 32.4634 128.842 35.348 127.469 38.7363C126.187 42.033 125.546 45.7875 125.546 50C125.546 54.1209 126.187 57.8755 127.469 61.2637C128.842 64.652 130.674 67.5824 132.963 70.0549C135.344 72.4359 138.091 74.2674 141.205 75.5494C144.41 76.8315 147.844 77.4725 151.507 77.4725Z" fill="black"/>
<path d="M0 1.92349V98.0773H26.6475V46.8354L69.0913 98.0773H91.4807V1.92349H64.8332V53.1654L22.3894 1.92349H0Z" fill="black"/>
<path d="M317.069 1.92349L274.625 98.0773H302.372L330.256 28.5962L344.156 63.2327H328.516L320.824 83.2876H352.204L358.139 98.0773H386.435L350.042 15.8967L367.297 1.92333L317.069 1.92349Z" fill="black"/>
</svg>
