<svg xmlns="http://www.w3.org/2000/svg" width="486" height="100" fill="none" viewBox="0 0 486 100">
  <path fill="#000" d="M416.105 73.99v24.087h-26.923V1.923h26.923V41.87l37.224-39.947h29.944l-39.256 42.53 41.316 53.624h-31.592L426.203 63.17l-10.098 10.82ZM194.5 1.923l41.07 96.154h26.785l41.207-96.154H276.64L249.957 64.6 223.894 1.923H194.5ZM151.507 100c-7.692 0-14.789-1.236-21.291-3.709-6.502-2.472-12.179-5.952-17.032-10.44a49.536 49.536 0 0 1-11.126-15.933C99.402 63.874 98.074 57.234 98.074 50s1.328-13.874 3.984-19.918c2.655-6.044 6.364-11.31 11.126-15.796 4.853-4.579 10.53-8.105 17.032-10.577C136.718 1.236 143.815 0 151.507 0c7.783 0 14.88 1.236 21.29 3.709 6.502 2.472 12.134 5.998 16.895 10.577 4.762 4.487 8.471 9.752 11.126 15.796 2.747 6.044 4.121 12.684 4.121 19.918s-1.374 13.92-4.121 20.055c-2.655 6.044-6.364 11.31-11.126 15.797-4.761 4.487-10.393 7.967-16.895 10.44-6.41 2.472-13.507 3.708-21.29 3.708Zm0-22.528c3.663 0 7.051-.64 10.164-1.923 3.205-1.282 5.952-3.113 8.242-5.494 2.381-2.473 4.212-5.403 5.494-8.791 1.374-3.389 2.06-7.143 2.06-11.264 0-4.212-.686-7.967-2.06-11.264-1.282-3.388-3.113-6.273-5.494-8.654-2.29-2.472-5.037-4.35-8.242-5.631-3.113-1.282-6.501-1.924-10.164-1.924-3.663 0-7.097.642-10.302 1.924-3.114 1.282-5.861 3.159-8.242 5.631-2.289 2.381-4.121 5.266-5.494 8.654-1.282 3.297-1.923 7.052-1.923 11.264 0 4.12.641 7.876 1.923 11.264 1.373 3.388 3.205 6.318 5.494 8.79a25.006 25.006 0 0 0 8.242 5.495c3.205 1.282 6.639 1.923 10.302 1.923ZM0 1.923v96.154h26.648V46.835L69.09 98.077h22.39V1.923H64.833v51.242L22.39 1.923H0ZM317.069 1.923l-42.444 96.154h27.747l27.884-69.48 13.9 34.636h-15.64l-7.692 20.055h31.38l5.935 14.79h28.296l-36.393-82.181 17.255-13.974h-50.228Z"/>
</svg>
