<svg width="168" height="58" viewBox="0 0 168 58" fill="none" xmlns="http://www.w3.org/2000/svg">
<path d="M50.3705 50.4934L50.3207 48.9981L57.3656 41.7538H58.7779L53.6437 47.1371L52.9459 47.8848L50.3705 50.4934ZM49.3071 53.3845V41.7538H50.5367V53.3845H49.3071ZM57.6647 53.3845L52.6468 47.6024L53.4776 46.7051L59.1268 53.3845H57.6647ZM66.1042 53.3845V41.7538H67.3338V52.3211H73.847V53.3845H66.1042ZM80.8731 53.3845V41.7538H82.1026V53.3845H80.8731ZM80.4079 40.8067L82.6842 38.7464H84.2626L81.5709 40.8067H80.4079ZM90.8715 53.3845V41.7538H91.8851L97.202 50.8258H96.6703L101.937 41.7538H102.951V53.3845H101.771V43.5981H102.054L97.202 51.9058H96.6205L91.7355 43.5981H92.0512V53.3845H90.8715ZM109.864 53.3845L115.181 41.7538H116.394L121.711 53.3845H120.415L115.53 42.4682H116.029L111.144 53.3845H109.864ZM111.958 50.2774L112.323 49.2805H119.086L119.451 50.2774H111.958Z" fill="black"/>
<path d="M144.036 25.6119V33.9498H134.717V0.665823H144.036V14.4933L156.922 0.665823H167.287L153.698 15.3873L168 33.9498H157.064L147.532 21.8666L144.036 25.6119Z" fill="black"/>
<path d="M67.3268 0.665823L81.5434 33.9498H90.8151L105.079 0.665823H95.76L86.5236 22.3614L77.5019 0.665823H67.3268Z" fill="black"/>
<path d="M52.4446 34.6154C49.782 34.6154 47.3254 34.1874 45.0748 33.3316C42.8242 32.4757 40.8589 31.2711 39.1789 29.7179C37.5306 28.1329 36.2469 26.2944 35.3276 24.2022C34.4084 22.1101 33.9488 19.8119 33.9488 17.3077C33.9488 14.8035 34.4084 12.5053 35.3276 10.4131C36.2469 8.321 37.5306 6.49831 39.1789 4.94506C40.8589 3.3601 42.8242 2.13969 45.0748 1.28381C47.3254 0.427937 49.782 0 52.4446 0C55.1389 0 57.5955 0.427937 59.8144 1.28381C62.065 2.13969 64.0144 3.3601 65.6627 4.94506C67.311 6.49831 68.5948 8.321 69.514 10.4131C70.465 12.5053 70.9404 14.8035 70.9404 17.3077C70.9404 19.8119 70.465 22.126 69.514 24.2498C68.5948 26.3419 67.311 28.1646 65.6627 29.7179C64.0144 31.2711 62.065 32.4757 59.8144 33.3316C57.5955 34.1874 55.1389 34.6154 52.4446 34.6154ZM52.4446 26.8174C53.7125 26.8174 54.8854 26.5955 55.9631 26.1517C57.0725 25.7079 58.0235 25.074 58.8159 24.2498C59.6401 23.3939 60.274 22.3795 60.7178 21.2067C61.1933 20.0338 61.431 18.7341 61.431 17.3077C61.431 15.8495 61.1933 14.5499 60.7178 13.4087C60.274 12.2358 59.6401 11.2373 58.8159 10.4131C58.0235 9.55727 57.0725 8.90744 55.9631 8.46365C54.8854 8.01987 53.7125 7.79797 52.4446 7.79797C51.1767 7.79797 49.988 8.01987 48.8786 8.46365C47.8008 8.90744 46.8499 9.55727 46.0257 10.4131C45.2333 11.2373 44.5993 12.2358 44.1239 13.4087C43.6801 14.5499 43.4582 15.8495 43.4582 17.3077C43.4582 18.7341 43.6801 20.0338 44.1239 21.2067C44.5993 22.3795 45.2333 23.3939 46.0257 24.2498C46.8499 25.074 47.8008 25.7079 48.8786 26.1517C49.988 26.5955 51.1767 26.8174 52.4446 26.8174Z" fill="black"/>
<path d="M0 0.665823V33.9498H9.22415V16.2122L23.9162 33.9498H31.6664V0.665823H22.4423V18.4034L7.75018 0.665823H0Z" fill="black"/>
<path d="M109.755 0.665823L95.0627 33.9498H104.667L114.319 9.8987L119.131 21.8882H113.717L111.054 28.8303H121.917L123.971 33.9498H133.766L121.168 5.50271L127.141 0.665769L109.755 0.665823Z" fill="black"/>
</svg>
