<svg width="24" height="24" viewBox="0 0 24 24" fill="none" xmlns="http://www.w3.org/2000/svg">
<path d="M19.07 4.92738C15.1642 1.02273 8.83251 1.02367 4.92787 4.92953C1.02322 8.83539 1.02416 15.167 4.93001 19.0717C8.83587 22.9763 15.1675 22.9754 19.0722 19.0695C20.9474 17.1937 22.0006 14.6498 22 11.9974C21.9995 9.34543 20.9455 6.8023 19.07 4.92738ZM17.1447 15.9294L17.1433 15.9307V15.9274L16.6367 16.4307C15.9814 17.0943 15.027 17.3673 14.12 17.1507C13.2061 16.9061 12.3374 16.5168 11.5467 15.9974C10.812 15.5279 10.1313 14.9791 9.51666 14.3607C8.95115 13.7994 8.4431 13.183 7.99998 12.5207C7.51529 11.8082 7.13166 11.0319 6.85998 10.2141C6.54853 9.25328 6.80662 8.19902 7.52666 7.49074L8.11998 6.89742C8.28494 6.73171 8.55298 6.73113 8.71865 6.89609L10.5933 8.77074C10.759 8.9357 10.7596 9.20375 10.5946 9.36941L9.4933 10.4707C9.17767 10.7829 9.13798 11.279 9.39998 11.6374C9.79783 12.1834 10.2381 12.6972 10.7167 13.1741C11.2502 13.71 11.8302 14.1974 12.45 14.6308C12.8081 14.8805 13.2935 14.8384 13.6033 14.5308L14.6666 13.4508C14.8316 13.2851 15.0996 13.2845 15.2653 13.4494L15.2666 13.4508L17.1433 15.3308C17.309 15.4957 17.3096 15.7637 17.1447 15.9294Z" fill="black"/>
</svg>
