<?xml version="1.0" standalone="no"?>
<!DOCTYPE svg PUBLIC "-//W3C//DTD SVG 20010904//EN"
 "http://www.w3.org/TR/2001/REC-SVG-20010904/DTD/svg10.dtd">
<svg version="1.0" xmlns="http://www.w3.org/2000/svg"
 width="700.000000pt" height="700.000000pt" viewBox="0 0 700.000000 700.000000"
 preserveAspectRatio="xMidYMid meet">
<metadata>
Created by potrace 1.14, written by Peter Selinger 2001-2017
</metadata>
<g transform="translate(0.000000,700.000000) scale(0.100000,-0.100000)"
fill="#000000" stroke="none">
<path d="M3278 6996 c-1 -2 -39 -6 -83 -10 -398 -31 -840 -152 -1210 -332
-180 -87 -448 -247 -555 -331 -8 -6 -51 -40 -95 -74 -425 -331 -812 -824
-1020 -1299 -25 -58 -52 -118 -59 -135 -51 -115 -148 -423 -171 -546 -3 -13
-11 -58 -20 -99 -22 -115 -30 -160 -41 -255 -26 -230 -26 -667 1 -826 2 -13 6
-46 9 -74 21 -182 109 -547 165 -680 5 -11 25 -65 46 -120 63 -166 249 -531
312 -610 4 -6 34 -49 65 -95 52 -78 214 -285 263 -336 192 -203 294 -298 445
-419 92 -74 370 -265 386 -265 4 0 15 -6 23 -14 27 -23 259 -139 390 -195 269
-116 598 -208 880 -247 25 -3 57 -8 71 -10 163 -25 682 -25 842 1 13 2 46 7
73 10 72 10 86 12 120 19 17 3 44 8 60 11 343 65 740 212 1039 384 49 28 93
51 97 51 5 0 9 5 9 10 0 6 5 10 10 10 15 0 220 141 330 227 152 118 324 280
450 422 36 41 70 79 76 85 65 68 263 353 352 508 46 79 172 331 172 342 0 3
11 29 24 58 57 127 151 421 182 573 17 81 54 301 59 350 4 33 9 71 11 85 9 46
11 524 4 605 -15 153 -21 210 -25 225 -2 8 -7 35 -10 60 -17 129 -80 384 -136
552 -324 964 -1054 1742 -1999 2130 -223 92 -557 186 -760 213 -19 3 -46 7
-60 10 -13 2 -52 7 -86 11 -33 3 -74 8 -90 10 -32 5 -540 14 -546 10z m-773
-2826 c232 -73 383 -220 460 -445 70 -209 6 -483 -154 -648 -156 -163 -400
-239 -656 -204 -304 41 -547 274 -581 557 -25 204 15 358 132 510 52 69 109
117 195 167 37 21 139 62 174 69 11 3 36 8 55 13 19 4 96 7 170 6 107 -2 149
-7 205 -25z m-1752 -235 c109 -132 211 -255 225 -274 40 -50 84 -101 117 -139
l30 -33 0 342 0 343 165 1 c91 1 170 0 176 -2 8 -3 11 -191 11 -643 l0 -640
-151 0 -151 0 -38 48 c-21 26 -147 178 -280 339 l-242 292 -3 -339 -2 -340
-178 0 -177 0 0 638 c-1 350 3 639 7 642 4 3 71 5 149 5 l143 -1 199 -239z
m2497 225 c4 -7 84 -195 176 -417 l168 -403 17 37 c9 21 88 205 174 408 87
204 161 374 166 379 9 10 334 15 348 6 5 -3 -25 -81 -65 -175 -40 -93 -78
-181 -83 -195 -5 -14 -95 -223 -199 -465 l-189 -440 -180 -3 -180 -2 -23 52
c-12 29 -31 73 -42 98 -10 25 -23 54 -27 65 -5 11 -16 38 -26 60 -69 158 -425
995 -425 999 0 9 45 11 213 11 133 -1 170 -4 177 -15z m1900 9 c0 -3 -49 -45
-109 -94 -60 -49 -108 -92 -106 -95 1 -3 109 -246 240 -540 130 -294 239 -538
241 -542 3 -5 -81 -7 -186 -6 l-192 3 -38 95 -38 95 -193 2 c-107 0 -201 1
-211 2 -13 1 -9 19 29 114 25 61 47 121 50 132 4 19 12 20 109 20 57 -1 104 2
104 5 0 11 -172 435 -179 443 -4 4 -16 -14 -26 -40 -10 -26 -25 -66 -35 -88
-9 -22 -84 -208 -165 -412 l-149 -373 -183 0 c-101 0 -183 2 -183 4 0 5 28 72
56 134 13 29 35 79 49 112 25 59 51 117 106 238 16 35 29 65 29 68 0 2 16 38
35 80 19 41 35 77 35 79 0 2 13 32 29 67 16 35 36 79 44 98 36 83 140 318 158
357 10 23 23 43 29 45 18 6 650 3 650 -3z m655 2 c7 -1 10 -92 10 -261 0 -143
2 -260 5 -260 3 0 37 35 77 78 90 98 118 128 266 285 66 70 125 135 132 144
11 14 38 17 214 17 110 1 201 1 201 0 0 -1 -17 -20 -140 -154 -52 -56 -102
-111 -110 -120 -8 -10 -60 -66 -116 -126 -56 -60 -113 -122 -127 -138 -15 -16
-24 -34 -20 -40 8 -13 233 -306 248 -322 5 -6 51 -64 100 -129 50 -65 113
-149 142 -187 l52 -68 -212 0 -212 1 -87 112 c-48 62 -96 123 -107 137 -85
107 -164 206 -168 210 -5 5 -108 -103 -127 -134 -10 -15 -13 -64 -12 -173 l2
-153 -181 0 -180 0 0 633 c0 347 3 637 7 642 5 8 263 12 343 6z m-2330 -1933
c3 -3 -21 -27 -54 -52 -46 -35 -68 -46 -96 -46 l-37 0 42 40 c23 22 50 46 61
54 19 13 72 16 84 4z m-1474 -147 c3 -1 5 -68 5 -151 -1 -112 2 -150 11 -150
7 0 16 6 20 14 4 8 68 76 142 151 117 120 138 137 168 139 19 1 38 -1 43 -4 4
-3 -43 -59 -106 -125 -109 -115 -125 -137 -105 -149 5 -3 61 -69 125 -146
l116 -140 -48 0 -48 0 -107 124 -107 125 -40 -40 c-58 -58 -67 -76 -65 -146
l1 -61 -33 -4 c-19 -2 -37 1 -41 6 -3 6 -7 133 -7 281 0 304 -5 287 76 276z
m749 -247 l0 -244 38 0 c260 -3 265 -4 267 -27 3 -44 -4 -45 -196 -44 -100 1
-185 3 -187 5 -6 7 -5 544 2 554 2 4 21 6 40 4 l36 -4 0 -244z m633 247 c4 0
7 -127 7 -281 l0 -280 -40 0 -40 0 0 279 c0 310 -4 295 73 282z m509 -177 c59
-98 112 -188 119 -198 10 -17 15 -13 50 45 21 35 42 71 46 79 47 94 148 250
161 251 10 0 25 2 35 4 19 4 17 32 18 -325 0 -102 0 -197 0 -212 -1 -26 -4
-28 -39 -28 l-38 0 1 193 c1 105 -1 196 -3 200 -4 8 -192 -300 -192 -314 0 -4
-7 -9 -15 -12 -20 -8 -48 20 -80 78 -15 27 -36 60 -46 74 -10 13 -19 30 -19
37 0 8 -4 14 -8 14 -4 0 -13 12 -20 28 -7 15 -23 45 -37 67 -29 47 -27 61 -27
-182 l0 -183 -39 0 -39 0 0 279 c0 301 -2 291 50 286 8 -1 63 -82 122 -181z
m1009 177 c4 -1 17 -25 29 -53 21 -49 82 -184 152 -338 17 -36 41 -89 54 -117
l23 -53 -43 0 -44 0 -22 58 c-13 31 -28 63 -33 70 -7 9 -51 12 -157 12 l-147
0 -31 -70 -31 -70 -40 0 c-23 0 -41 1 -41 3 0 1 56 126 125 277 128 283 135
293 185 284 8 -1 18 -3 21 -3z"/>
<path d="M2183 3884 c-159 -42 -253 -180 -248 -364 6 -216 146 -356 350 -352
93 1 174 32 231 87 84 81 126 226 102 355 -37 205 -232 328 -435 274z"/>
<path d="M4856 1991 c-15 -23 -106 -236 -106 -246 0 -12 213 -16 224 -4 5 5
-94 243 -107 255 -3 3 -8 1 -11 -5z"/>
</g>
</svg>
